<svg width="45" height="45" viewBox="0 0 45 45" fill="none" xmlns="http://www.w3.org/2000/svg">
<path d="M20.4247 0.0894793C16.1694 0.484235 12.1144 2.08255 8.73419 4.69745C5.35394 7.31235 2.78819 10.8357 1.33705 14.8554C-0.114096 18.8751 -0.390621 23.2249 0.539818 27.396C1.47026 31.5671 3.56919 35.387 6.59109 38.4089C9.61298 41.4308 13.4329 43.5297 17.604 44.4602C21.7751 45.3906 26.1249 45.1141 30.1446 43.6629C34.1643 42.2118 37.6876 39.6461 40.3025 36.2658C42.9174 32.8856 44.5158 28.8306 44.9105 24.5753C45.2043 21.2861 44.7726 17.9725 43.646 14.8683C42.5193 11.7641 40.7252 8.945 38.3901 6.60992C36.055 4.27483 33.2359 2.48066 30.1317 1.35402C27.0275 0.227372 23.7139 -0.204294 20.4247 0.0894793ZM34.5858 17.4439L21.2498 30.6405C20.8497 31.03 20.3134 31.2479 19.755 31.2479C19.1966 31.2479 18.6602 31.03 18.2601 30.6405L10.4 23.134C9.98933 22.7397 9.75213 22.1983 9.74057 21.6291C9.72902 21.0599 9.94406 20.5094 10.3384 20.0987C10.7327 19.688 11.274 19.4508 11.8433 19.4393C12.4125 19.4277 12.963 19.6428 13.3737 20.0371L19.7175 26.1237L31.5907 14.3952C31.9982 14.0122 32.5392 13.8037 33.0983 13.8141C33.6573 13.8245 34.1902 14.053 34.5832 14.4509C34.9761 14.8487 35.198 15.3844 35.2015 15.9436C35.205 16.5028 34.9898 17.0411 34.6018 17.4439H34.5858Z" fill="#6BD85B"/>
</svg>
